<?xml version="1.0" standalone="no"?>
<!DOCTYPE svg PUBLIC "-//W3C//DTD SVG 20010904//EN"
 "http://www.w3.org/TR/2001/REC-SVG-20010904/DTD/svg10.dtd">
<svg version="1.0" xmlns="http://www.w3.org/2000/svg"
 width="500.000000pt" height="500.000000pt" viewBox="0 0 500.000000 500.000000"
 preserveAspectRatio="xMidYMid meet">
<metadata>
Created by potrace 1.14, written by Peter Selinger 2001-2017
</metadata>
<g transform="translate(0.000000,500.000000) scale(0.100000,-0.100000)"
fill="#000000" stroke="none">
<path d="M1721 4801 c-19 -124 2 -213 77 -328 l34 -53 -21 -34 c-12 -19 -28
-37 -37 -40 -9 -3 -70 -6 -137 -6 -126 0 -213 17 -286 55 -18 9 -30 11 -26 5
8 -13 201 -106 280 -136 36 -13 44 -20 30 -23 -79 -15 -492 -164 -513 -186
-14 -13 8 -13 48 1 83 29 400 48 400 24 0 -9 -24 -26 -95 -67 -42 -25 -132
-65 -189 -84 -59 -20 -80 -21 -319 -9 -55 3 -70 -4 -30 -15 15 -3 45 -15 68
-25 22 -10 78 -36 125 -58 47 -21 102 -44 123 -51 20 -7 35 -17 32 -22 -4 -5
18 -9 49 -9 31 0 56 -4 56 -10 0 -13 -115 -70 -210 -105 -97 -35 -246 -45
-332 -22 -32 8 -60 12 -63 8 -8 -14 138 -89 235 -122 79 -27 114 -33 213 -37
64 -2 117 -6 117 -9 0 -2 -12 -24 -26 -49 -40 -67 -161 -184 -241 -233 -61
-36 -85 -45 -149 -52 -42 -4 -79 -10 -81 -13 -12 -12 82 -26 173 -26 79 0 121
6 188 25 47 14 88 25 90 25 4 0 -22 -136 -35 -180 -5 -19 -23 -98 -39 -175
-16 -77 -43 -189 -60 -250 -41 -152 -77 -330 -90 -455 -6 -58 -20 -154 -31
-215 -37 -205 -73 -511 -63 -527 3 -4 10 -8 15 -8 5 0 60 -34 122 -75 61 -41
119 -75 127 -75 9 0 33 -14 53 -31 l38 -32 -38 -39 c-21 -22 -67 -63 -102 -91
-72 -57 -85 -82 -107 -200 -40 -220 -119 -366 -231 -429 -30 -17 -77 -52 -104
-77 l-50 -46 11 -80 c7 -43 9 -92 6 -107 l-5 -28 1716 0 c1622 0 1717 1 1730
18 14 16 14 16 9 0 -4 -14 0 -18 19 -18 23 0 25 4 26 48 1 51 4 48 14 -10 l6
-38 379 0 380 0 0 366 c0 361 0 365 -20 359 -11 -4 -59 -7 -108 -8 -149 -2
-193 34 -139 114 17 26 29 33 48 31 39 -5 201 -2 210 4 12 7 11 114 0 114 -11
0 -44 -45 -55 -74 -5 -16 -13 -18 -53 -12 -79 11 -91 38 -48 111 26 45 71 84
129 111 l36 18 0 97 c0 88 -2 98 -20 104 -31 10 -60 60 -72 123 -13 72 5 145
57 222 31 47 35 59 35 120 l0 68 -58 -57 c-32 -31 -73 -63 -90 -70 -18 -8 -32
-20 -32 -27 0 -7 -10 -20 -23 -28 -21 -15 -120 -43 -183 -53 -39 -6 -98 18
-119 50 -15 23 -14 28 5 78 56 141 155 214 318 235 53 7 67 18 33 29 -20 6
-323 -38 -381 -56 -51 -16 -126 -66 -160 -107 -16 -20 -33 -33 -37 -28 -4 4
-3 10 3 14 18 12 75 122 69 133 -7 10 -26 19 -157 77 -117 53 -130 89 -179
529 -21 189 -40 387 -43 440 -21 371 -35 500 -65 616 -38 146 -63 205 -116
282 -72 102 -143 176 -346 360 -81 72 -369 192 -567 235 -253 55 -683 80 -800
47 l-52 -15 -15 28 c-8 16 -15 45 -15 65 0 19 -4 35 -10 35 -17 0 -11 -64 10
-98 l20 -33 -22 -9 c-20 -8 -30 -1 -78 48 -63 66 -130 174 -155 250 -10 28
-18 52 -19 52 -1 0 -8 -40 -15 -89z m1023 -307 c269 -48 464 -119 633 -230
106 -68 309 -269 342 -337 31 -63 45 -162 30 -200 -12 -28 -13 -28 -26 -11
-12 16 -15 17 -23 4 -5 -8 -10 -28 -10 -43 0 -18 -4 -26 -11 -21 -6 3 -9 17
-6 30 2 13 0 21 -4 18 -5 -3 -9 -47 -9 -97 -1 -74 -3 -88 -12 -72 -16 27 -22
125 -9 125 18 0 12 24 -9 38 -19 11 -20 10 -21 -30 -1 -25 -3 -32 -6 -18 -2
14 -6 36 -9 50 -6 25 -6 25 -20 5 -12 -16 -15 -52 -13 -182 2 -89 0 -165 -4
-169 -4 -4 -7 4 -7 19 0 14 -5 27 -11 29 -7 2 -13 36 -16 78 -8 130 -16 91
-11 -50 5 -131 5 -133 -8 -75 -8 33 -18 76 -24 95 -5 19 -12 93 -15 164 -5
133 -14 181 -16 85 l-1 -54 -10 53 c-5 29 -13 50 -18 47 -5 -3 -10 5 -12 17
-2 13 -11 24 -20 26 -15 3 -18 -5 -19 -55 -1 -57 -1 -57 -10 -18 -4 22 -8 58
-8 81 -1 22 -8 49 -16 60 -14 18 -14 17 -15 -14 0 -20 -6 -35 -16 -39 -8 -3
-13 -12 -10 -19 6 -16 1 -17 -23 -4 -16 8 -19 3 -24 -56 -4 -35 -13 -74 -22
-87 -8 -12 -15 -37 -15 -56 0 -33 -1 -34 -15 -15 -15 18 -15 15 -10 -33 4 -29
3 -58 -2 -65 -5 -8 -10 12 -14 52 -7 68 -2 -127 6 -258 4 -62 3 -71 -5 -47
-10 27 -28 198 -33 302 -1 22 -6 39 -11 35 -5 -3 -6 2 -3 12 5 14 2 17 -16 14
-16 -2 -23 3 -25 19 -3 20 0 22 28 19 40 -5 34 16 -8 28 -47 13 -42 36 6 29
27 -4 34 -3 27 6 -6 6 -23 12 -38 13 -15 1 -27 8 -27 15 0 10 11 12 39 7 33
-5 39 -3 44 16 6 24 -5 31 -60 34 -21 2 -45 3 -55 4 -9 1 -21 16 -27 33 -14
40 -14 62 -1 54 6 -3 10 -1 10 5 0 7 -7 10 -15 7 -8 -4 -17 -2 -21 4 -10 17 2
21 36 14 21 -5 30 -11 26 -21 -3 -8 -2 -14 3 -14 5 0 11 9 14 19 5 20 -10 31
-43 31 -23 0 -67 36 -57 46 4 5 21 3 38 -3 34 -13 59 -8 59 13 0 8 10 14 22
14 33 0 18 6 -32 14 -42 6 -44 6 -25 -8 27 -21 3 -21 -41 0 -41 20 -47 54 -10
54 14 0 28 4 31 10 6 10 -33 23 -55 18 -8 -2 -15 6 -17 17 -3 15 -2 17 5 6 7
-9 19 -11 41 -6 40 9 32 23 -13 23 -38 0 -56 8 -56 24 0 7 20 9 55 6 73 -6 71
8 -2 16 -32 4 -65 11 -73 16 -10 7 -3 8 23 5 20 -3 53 -7 74 -10 22 -2 33 -1
27 5 -5 5 -26 11 -47 14 -20 2 -44 12 -54 21 -10 10 -26 15 -40 12 -17 -3 -34
3 -51 19 l-27 25 40 -7 c58 -8 105 -24 105 -35 0 -5 12 -8 28 -8 20 1 22 3 7
6 -11 3 -24 12 -30 19 -5 8 -32 17 -60 20 -73 10 -93 27 -23 20 31 -3 65 -9
75 -12 14 -6 15 -4 6 6 -6 6 -45 17 -87 23 -42 6 -76 15 -76 19 0 5 10 7 23 4
51 -9 182 -18 176 -12 -4 4 -38 11 -75 16 -114 14 -213 47 -255 84 -20 19 -66
51 -103 72 -36 22 -66 43 -66 47 0 11 164 -1 264 -19z m159 -311 c-7 -2 -21
-2 -30 0 -10 3 -4 5 12 5 17 0 24 -2 18 -5z m222 -443 c17 -7 15 -9 -10 -8
-16 0 -43 4 -60 8 -29 7 -28 8 10 8 22 0 49 -3 60 -8z m-65 -30 c0 -5 -2 -10
-4 -10 -3 0 -8 5 -11 10 -3 6 -1 10 4 10 6 0 11 -4 11 -10z m654 -32 c4 -17 2
-28 -4 -28 -5 0 -10 14 -10 32 0 36 4 35 14 -4z m-1098 -196 c77 -74 154 -177
154 -206 0 -7 -9 -39 -20 -71 -21 -61 -26 -100 -11 -91 5 3 16 29 25 58 28 87
25 82 41 68 18 -15 19 -7 4 22 -11 20 -4 89 9 87 4 0 33 -32 65 -70 l59 -70 1
-100 2 -101 -70 -18 c-38 -10 -77 -21 -85 -24 -16 -6 -40 33 -40 65 0 22 -16
33 -26 18 -4 -8 -3 -9 4 -5 8 5 10 -5 7 -29 -3 -23 -1 -34 5 -30 12 7 13 -5 2
-21 -10 -15 -9 -14 -422 -158 -143 -50 -277 -103 -297 -119 -9 -6 -22 -1 -41
15 -35 30 -90 53 -100 44 -6 -7 56 -65 68 -64 40 3 39 -16 -2 -33 -18 -7 -52
-26 -76 -42 -24 -16 -45 -27 -46 -25 -2 1 -14 23 -26 48 -21 40 -53 223 -42
234 2 3 15 1 28 -4 16 -6 37 -5 65 5 23 8 43 15 45 15 11 0 1 -39 -17 -69 -11
-18 -18 -35 -16 -38 9 -8 72 63 89 101 22 48 24 129 3 150 -9 8 -15 18 -15 21
0 3 -6 15 -14 28 -14 22 -44 152 -45 196 0 22 2 21 25 -12 13 -20 24 -39 24
-42 0 -12 71 -99 93 -113 12 -9 39 -30 60 -49 41 -36 63 -43 52 -15 -37 91
-53 142 -43 136 7 -5 9 -2 5 7 -40 93 -57 146 -68 212 -6 43 -10 79 -8 82 3 2
29 -18 59 -44 l54 -48 -12 -40 c-7 -22 -12 -48 -12 -57 0 -28 27 -18 50 19 12
19 25 35 28 35 4 0 22 -9 41 -21 33 -20 33 -20 12 -35 -27 -19 -27 -30 0 -37
15 -4 27 1 40 16 14 17 20 19 30 10 10 -10 1 -18 -44 -38 -31 -13 -57 -30 -57
-36 0 -6 7 -8 16 -5 12 4 15 2 10 -9 -7 -19 8 -19 24 0 7 8 33 21 59 29 41 12
49 11 76 -5 33 -21 65 -25 65 -9 0 6 -6 10 -14 10 -18 0 -39 26 -31 39 4 7 13
6 26 -2 17 -10 22 -9 38 12 10 13 24 22 30 20 9 -3 6 -13 -9 -32 -12 -16 -20
-31 -16 -34 8 -8 44 25 51 48 4 11 13 19 21 19 14 0 74 52 74 64 0 2 -16 2
-35 -1 -39 -6 -41 -3 -76 116 -20 70 -19 97 2 34 20 -61 49 -126 54 -121 5 5
-11 53 -40 123 -9 22 -15 38 -12 35 15 -16 115 -154 130 -181 10 -17 20 -29
23 -26 7 6 -71 128 -124 195 -51 65 -25 50 64 -36z m-220 -108 c23 -14 17 -22
-22 -30 -28 -5 -32 -2 -63 57 l-32 62 49 -39 c28 -22 58 -44 68 -50z m407 -22
c-8 -18 -20 -3 -28 33 l-7 30 20 -24 c11 -14 18 -31 15 -39z m854 -4 c-3 -7
-5 -2 -5 12 0 14 2 19 5 13 2 -7 2 -19 0 -25z m-1195 -19 c20 -11 18 -13 -27
-30 -50 -19 -65 -18 -65 6 0 12 12 18 68 34 2 1 13 -4 24 -10z m1115 -81 c-4
-12 -2 -27 3 -33 5 -6 11 -40 13 -76 2 -36 9 -75 16 -86 14 -28 14 -93 0 -93
-6 0 -8 7 -5 16 4 9 0 24 -8 33 -8 9 -17 43 -20 76 -3 33 -9 88 -12 123 -5 46
-3 62 6 62 8 0 10 -8 7 -22z m-1759 -50 c7 -24 15 -49 19 -56 4 -10 -4 -9 -28
3 -19 10 -36 19 -37 21 -6 5 19 74 27 74 4 0 12 -19 19 -42z m1799 -90 c-3 -7
-5 -2 -5 12 0 14 2 19 5 13 2 -7 2 -19 0 -25z m-1799 -4 c31 -9 28 -16 -18
-42 -22 -12 -40 -27 -40 -32 0 -17 19 -21 42 -9 l23 12 -20 -22 c-28 -32 -86
-55 -96 -39 -4 7 -4 17 0 23 5 5 14 34 22 63 14 55 26 62 87 46z m42 -67 c-14
-8 -27 -12 -30 -10 -7 6 23 23 40 23 8 0 4 -6 -10 -13z m77 -59 c-3 -7 -5 -2
-5 12 0 14 2 19 5 13 2 -7 2 -19 0 -25z m-15 -22 c6 4 8 -1 6 -12 -4 -24 -75
-64 -113 -64 -17 0 -41 7 -54 17 -23 15 -23 17 -6 30 24 16 38 17 29 1 -4 -7
3 -3 15 9 20 21 22 21 50 5 38 -21 51 -9 20 18 l-24 21 23 -6 c16 -5 24 -1 30
12 6 15 8 13 10 -10 2 -16 8 -25 14 -21z m1695 -38 c-3 -7 -5 -2 -5 12 0 14 2
19 5 13 2 -7 2 -19 0 -25z m-1588 -363 c-1 -45 1 -87 4 -92 4 -6 5 -78 4 -160
-1 -83 -5 -146 -9 -140 -3 5 -8 -1 -11 -14 -2 -13 -5 29 -6 94 -1 80 -5 117
-12 117 -9 0 -10 21 -4 78 4 42 7 103 6 135 -2 60 4 81 20 71 6 -3 9 -43 8
-89z m-54 -143 c-6 -52 -10 -65 -28 -71 -12 -5 -23 -7 -25 -6 -2 2 3 51 9 110
9 70 18 113 28 123 15 14 16 11 19 -39 2 -30 1 -82 -3 -117z m-210 58 c-3 -5
-16 -15 -28 -21 -19 -9 -19 -8 3 10 28 23 34 26 25 11z m316 -437 c29 -43 70
-100 92 -126 22 -26 37 -50 35 -52 -9 -9 -188 228 -188 249 0 16 13 0 61 -71z
m1968 -20 c75 -38 91 -51 91 -70 0 -24 -30 -206 -34 -211 -2 -1 -27 3 -56 9
-29 6 -76 9 -103 6 -42 -5 -47 -4 -37 8 16 19 7 19 -33 -1 l-32 -16 28 29 c32
34 34 43 10 43 -15 0 -16 2 -3 10 30 19 2 19 -35 0 -22 -11 -48 -17 -58 -14
-22 7 -70 -23 -61 -37 4 -8 0 -7 -14 0 -11 6 -30 11 -42 11 -32 0 -17 14 55
49 36 18 65 36 65 42 0 5 7 9 16 9 14 0 14 3 4 15 -9 11 -9 15 -1 15 7 0 10 4
6 9 -3 5 0 13 7 17 8 5 7 9 -4 13 -13 5 -2 19 45 59 33 28 69 52 78 52 10 0
59 -21 108 -47z m-264 -223 c-3 -5 -11 -10 -16 -10 -6 0 -7 5 -4 10 3 6 11 10
16 10 6 0 7 -4 4 -10z m-1546 -97 c-18 -48 -77 -149 -96 -164 -17 -13 -17 -13
0 11 10 14 26 41 35 60 40 80 63 120 67 120 2 0 0 -12 -6 -27z m-222 -54 c-22
-11 -41 -18 -43 -16 -5 5 56 37 71 36 6 0 -7 -9 -28 -20z m2293 -8 c0 -23 -11
-36 -50 -60 -19 -11 -29 -21 -22 -21 8 0 26 9 41 19 14 11 39 20 54 20 15 1
39 1 54 2 15 0 29 -4 31 -10 2 -5 10 -7 18 -4 8 3 30 2 49 -1 26 -5 35 -12 35
-27 0 -18 2 -19 29 -4 18 9 32 11 36 5 3 -5 -6 -12 -20 -16 -14 -3 -25 -11
-25 -18 0 -6 -12 -20 -27 -30 -26 -16 -17 -16 26 2 9 3 12 1 7 -6 -11 -19 7
-14 75 18 35 16 65 27 67 25 11 -10 -20 -32 -72 -49 -31 -11 -56 -23 -56 -27
0 -14 35 -15 45 -1 13 16 101 30 92 14 -4 -5 -32 -20 -62 -33 -32 -13 -54 -28
-51 -35 3 -7 -22 -20 -62 -32 -267 -85 -350 -122 -389 -173 -19 -25 -163 -121
-163 -109 0 13 38 49 150 139 l25 20 -25 0 c-14 0 -47 -11 -75 -24 -27 -13
-52 -22 -54 -19 -2 2 -2 5 0 7 2 1 19 12 36 25 18 12 44 27 59 32 16 6 24 16
21 24 -3 8 5 18 19 25 30 13 31 27 3 34 -15 4 -20 11 -16 21 9 23 -21 20 -62
-5 -48 -29 -50 -15 -2 18 67 46 47 61 -24 18 -22 -14 -44 -25 -50 -25 -5 0 16
15 47 33 43 25 55 36 46 45 -8 8 -17 8 -32 0 -21 -11 -21 -11 -2 11 19 21 19
21 -2 21 -20 0 -88 -33 -142 -70 -38 -26 -50 -32 -50 -26 0 3 35 28 78 55 42
27 91 63 109 80 18 17 58 47 90 68 52 33 69 39 111 42 7 1 11 5 8 10 -8 13 11
18 46 13 18 -3 28 -10 28 -21z m325 -101 c-27 -12 -43 -12 -25 0 8 5 22 9 30
9 10 0 8 -3 -5 -9z m85 -99 c-8 -5 -26 -11 -40 -15 -21 -5 -20 -3 5 9 32 15
60 20 35 6z m-900 -65 c0 -2 -8 -10 -17 -17 -16 -13 -17 -12 -4 4 13 16 21 21
21 13z m985 -155 c-6 -5 -71 -44 -145 -87 -130 -74 -231 -139 -297 -193 -90
-75 -110 -88 -135 -94 -14 -4 -47 -23 -72 -42 -25 -19 -46 -33 -46 -31 0 20
95 189 116 205 39 31 219 115 309 145 44 14 123 44 175 66 104 43 108 44 95
31z m-790 -150 c-3 -6 -12 -11 -19 -11 -8 0 -19 -7 -26 -16 -15 -16 -50 -38
-50 -29 0 7 94 74 98 70 2 -2 1 -8 -3 -14z m204 -254 c-118 -94 -148 -115
-143 -102 7 17 121 105 137 105 6 0 8 -1 6 -3z m-89 -90 c0 -2 -19 -21 -42
-42 l-43 -40 40 43 c36 39 45 47 45 39z m844 -168 c9 -59 -10 -81 -32 -36 -10
20 -11 19 -7 -9 3 -21 0 -36 -10 -44 -13 -11 -15 -4 -15 53 0 67 3 71 46 76 6
0 14 -17 18 -40z m-84 -39 l0 -70 -38 -25 c-24 -16 -46 -23 -56 -19 -11 4 -16
2 -14 -6 3 -12 -67 -60 -133 -92 -14 -7 -26 -17 -25 -23 1 -5 -21 -25 -48 -43
-38 -25 -51 -30 -58 -20 -6 10 -8 10 -8 -2 -1 -15 -48 -56 -55 -48 -9 9 -10
163 -1 165 5 1 13 7 17 15 7 11 11 10 19 -2 9 -12 10 -12 8 4 -2 14 10 29 40
49 58 39 44 51 -43 37 -37 -6 -69 -9 -70 -8 -1 2 -5 19 -9 40 l-7 36 48 10
c50 11 183 33 338 56 50 8 91 14 93 15 1 0 2 -30 2 -69z m-493 -40 c-3 -11 -1
-23 4 -26 17 -10 -1 -23 -31 -22 -26 1 -30 5 -30 29 0 18 6 29 18 32 37 10 44
7 39 -13z m-74 -40 c-8 -31 -23 -23 -23 11 0 26 3 29 14 20 8 -7 12 -21 9 -31z
m-46 -7 c-3 -10 -5 -4 -5 12 0 17 2 24 5 18 2 -7 2 -21 0 -30z m-17 2 c0 -7
-7 -15 -15 -19 -15 -5 -22 24 -9 37 9 9 24 -2 24 -18z m-40 -10 c0 -8 -7 -15
-15 -15 -16 0 -20 12 -8 23 11 12 23 8 23 -8z m-60 -15 c0 -5 -8 -10 -17 -10
-15 0 -16 2 -3 10 19 12 20 12 20 0z m250 -124 c0 -3 -4 -8 -10 -11 -5 -3 -10
-1 -10 4 0 6 5 11 10 11 6 0 10 -2 10 -4z m-21 -128 c1 -50 -16 -57 -23 -11
-10 69 -10 98 -1 113 7 11 11 5 17 -25 4 -22 7 -57 7 -77z m24 34 c2 -32 1
-48 -4 -40 -5 7 -8 36 -8 63 1 60 6 50 12 -23z m-65 -22 l0 -25 -8 25 c-4 14
-8 34 -8 45 l-1 20 9 -20 c5 -11 8 -31 8 -45z m89 3 c-3 -10 -5 -4 -5 12 0 17
2 24 5 18 2 -7 2 -21 0 -30z m-147 -79 c0 -43 -3 -54 -16 -54 -13 0 -14 3 -5
14 8 10 10 30 5 62 -5 34 -4 45 5 40 6 -4 11 -32 11 -62z m57 14 c-3 -7 -5 -2
-5 12 0 14 2 19 5 13 2 -7 2 -19 0 -25z"/>
<path d="M3015 4200 c3 -5 10 -10 16 -10 5 0 9 5 9 10 0 6 -7 10 -16 10 -8 0
-12 -4 -9 -10z"/>
<path d="M3028 4043 c7 -3 16 -2 19 1 4 3 -2 6 -13 5 -11 0 -14 -3 -6 -6z"/>
<path d="M3038 4003 c6 -2 18 -2 25 0 6 3 1 5 -13 5 -14 0 -19 -2 -12 -5z"/>
<path d="M3109 3881 l24 -6 -29 -14 c-27 -12 -28 -14 -9 -22 30 -12 33 -11 40
11 4 12 16 20 28 21 21 0 21 1 2 9 -11 5 -33 8 -50 8 -28 0 -28 -1 -6 -7z"/>
<path d="M3070 3819 c0 -5 11 -9 25 -9 14 0 25 2 25 4 0 2 -11 6 -25 8 -14 3
-25 1 -25 -3z"/>
<path d="M3581 3754 c0 -11 3 -14 6 -6 3 7 2 16 -1 19 -3 4 -6 -2 -5 -13z"/>
<path d="M3502 3720 c0 -14 2 -19 5 -12 2 6 2 18 0 25 -3 6 -5 1 -5 -13z"/>
<path d="M3153 3640 c0 -25 2 -35 4 -22 2 12 2 32 0 45 -2 12 -4 2 -4 -23z"/>
<path d="M3500 3611 c0 -17 5 -31 10 -31 6 0 10 11 10 24 0 14 -4 28 -10 31
-6 4 -10 -7 -10 -24z"/>
<path d="M3181 3614 c0 -11 3 -14 6 -6 3 7 2 16 -1 19 -3 4 -6 -2 -5 -13z"/>
<path d="M2691 3305 c0 -18 28 -61 29 -44 0 8 -7 24 -15 35 -8 10 -14 15 -14
9z"/>
<path d="M2613 3283 c-9 -26 -39 -63 -47 -58 -3 3 -4 2 -1 -2 3 -3 -2 -15 -12
-25 -9 -10 -11 -18 -5 -18 6 0 14 5 17 10 4 6 10 8 15 5 8 -5 60 83 60 100 0
13 -21 3 -27 -12z"/>
<path d="M1900 3225 c0 -5 5 -17 10 -25 5 -8 10 -10 10 -5 0 6 -5 17 -10 25
-5 8 -10 11 -10 5z"/>
<path d="M2175 3210 c-3 -5 -2 -10 4 -10 5 0 13 5 16 10 3 6 2 10 -4 10 -5 0
-13 -4 -16 -10z"/>
<path d="M2440 3164 c-36 -8 -87 -13 -114 -11 -44 4 -48 3 -31 -9 10 -8 34
-14 52 -14 40 0 164 29 178 41 12 12 -7 10 -85 -7z"/>
<path d="M1930 3157 c0 -2 6 -10 14 -16 11 -9 16 -9 22 1 4 7 4 10 -1 6 -4 -4
-14 -3 -22 3 -7 6 -13 9 -13 6z"/>
<path d="M2161 3145 c-1 -15 21 -40 47 -54 38 -20 36 -5 -2 18 -19 12 -37 27
-40 34 -2 7 -5 8 -5 2z"/>
<path d="M1977 3095 c20 -27 36 -33 27 -10 -4 8 -10 15 -16 15 -5 0 -6 5 -3
10 3 6 -1 10 -10 10 -14 0 -14 -3 2 -25z"/>
<path d="M2145 3100 c-3 -5 -1 -10 4 -10 6 0 11 5 11 10 0 6 -2 10 -4 10 -3 0
-8 -4 -11 -10z"/>
<path d="M2294 2988 l-19 -23 23 19 c21 18 27 26 19 26 -2 0 -12 -10 -23 -22z"/>
<path d="M1787 2810 c3 -11 9 -22 13 -25 5 -3 6 4 3 15 -3 11 -9 22 -13 25 -5
3 -6 -4 -3 -15z"/>
<path d="M3590 3031 c0 -5 5 -13 10 -16 6 -3 10 -2 10 4 0 5 -4 13 -10 16 -5
3 -10 2 -10 -4z"/>
<path d="M4225 1610 c-8 -13 15 -13 35 0 12 8 11 10 -7 10 -12 0 -25 -4 -28
-10z"/>
<path d="M4272 1545 c-18 -13 -29 -26 -25 -28 4 -3 24 8 43 24 41 34 29 37
-18 4z"/>
<path d="M4460 1515 c-11 -13 -10 -14 4 -9 9 3 16 10 16 15 0 13 -6 11 -20 -6z"/>
<path d="M4274 1494 c-18 -14 -18 -14 6 -3 31 14 36 19 24 19 -6 0 -19 -7 -30
-16z"/>
<path d="M4370 1460 c-8 -5 -11 -12 -7 -16 4 -4 13 -2 19 4 15 15 7 24 -12 12z"/>
<path d="M4304 1444 c-18 -14 -18 -14 6 -3 31 14 36 19 24 19 -6 0 -19 -7 -30
-16z"/>
<path d="M4489 1440 c-13 -10 -19 -19 -13 -20 7 0 22 9 35 20 13 10 19 19 13
20 -7 0 -22 -9 -35 -20z"/>
<path d="M4310 1420 c-16 -13 -20 -20 -10 -19 16 0 50 22 50 33 0 11 -14 6
-40 -14z"/>
<path d="M4165 1249 c-11 -17 1 -21 15 -4 8 9 8 15 2 15 -6 0 -14 -5 -17 -11z"/>
<path d="M4622 340 c0 -14 2 -19 5 -12 2 6 2 18 0 25 -3 6 -5 1 -5 -13z"/>
<path d="M1178 3743 c7 -3 16 -2 19 1 4 3 -2 6 -13 5 -11 0 -14 -3 -6 -6z"/>
<path d="M1228 3743 c6 -2 18 -2 25 0 6 3 1 5 -13 5 -14 0 -19 -2 -12 -5z"/>
</g>
</svg>
